<?xml version="1.0" encoding="utf-8"?>
<!-- Generator: Adobe Illustrator 27.5.0, SVG Export Plug-In . SVG Version: 6.00 Build 0)  -->
<svg version="1.1" xmlns="http://www.w3.org/2000/svg" xmlns:xlink="http://www.w3.org/1999/xlink" x="0px" y="0px"
	 viewBox="0 0 2200 2200" style="enable-background:new 0 0 2200 2200;" xml:space="preserve">
<g id="Background">
	<rect style="fill:#FFFFFF;" width="2200" height="2200"/>
</g>
<g id="Objects">
	<linearGradient id="SVGID_1_" gradientUnits="userSpaceOnUse" x1="377.5809" y1="555.9318" x2="1868.939" y2="1462.2186">
		<stop  offset="0" style="stop-color:#FF5A40"/>
		<stop  offset="1" style="stop-color:#E62E62"/>
	</linearGradient>
	<path style="fill:url(#SVGID_1_);" d="M1792.822,889.242l-0.918-434.501l0.004-0.324c-0.048-10.015-5.174-19.763-14.396-25.296
		l-2.809-1.71l-2.542-1.508c-1.687-1.004-3.336-1.947-4.987-2.891c-3.316-1.91-6.592-3.692-9.891-5.51
		c-6.582-3.565-13.169-7.033-19.784-10.377c-6.611-3.367-13.267-6.564-19.921-9.778c-6.684-3.105-13.349-6.283-20.078-9.251
		c-26.859-12.065-54.116-22.982-81.673-32.974c-27.559-9.987-55.437-18.988-83.553-27.1
		c-83.579-25.208-170.944-41.757-257.809-50.367c-105.748-10.481-211.167-11.742-317.073-3.203
		c-3.635,0.313-7.277,0.539-10.904,0.947c-58.172,6.544-115.945,14.043-173.272,26.164
		c-119.293,25.222-240.875,61.606-346.295,124.344l-2.542,1.508c0,0-2.81,1.71-2.812,1.712l-1.073,0.669
		c-8.236,5.208-13.596,14.499-13.312,24.947l12.249,450.3c0.273,9.36,7.828,17.034,17.312,17.269
		c9.861,0.244,17.933-7.86,18.202-17.721l11.743-431.675c1.132-0.582,2.265-1.163,3.393-1.743
		c18.395-9.456,37.328-17.897,56.393-25.903c25.595-10.748,51.649-20.664,78.067-29.607c26.392-9.018,53.119-17.158,80.07-24.514
		c75.638-20.647,152.767-34.734,230.594-44.029c50.401-6.02,101.543-9.493,152.31-10.008c35.199-0.357,70.349,0.094,105.529,1.269
		c56.469,3.099,112.791,7.745,168.717,16.341c20.178,3.101,40.389,6.363,60.418,10.335c37.721,7.568,75.154,16.005,112.289,26.09
		c26.951,7.357,53.678,15.496,80.07,24.514c26.419,8.943,52.472,18.859,78.068,29.607c6.426,2.642,12.74,5.469,19.098,8.229
		c6.297,2.851,12.601,5.696,18.815,8.656c7.21,3.385,14.316,6.894,21.326,10.459c0.007,0.011,0.012,0.019,0.018,0.03l-0.88,416.602
		c-0.169,80.167-4.172,160.263-17.774,239.385c-4.434,25.792-9.422,51.399-15.268,76.906c-8.042,34.282-17.627,68.149-28.936,101.38
		c-11.301,33.231-24.336,65.821-39.207,97.501c-14.86,31.682-31.441,62.516-49.885,92.164
		c-18.425,29.657-38.629,58.168-60.481,85.336c-21.857,27.161-45.299,53.047-70.417,77.229
		c-75.46,72.53-163.485,131.584-259.927,172.453c-16.003,6.782-32.206,13.026-48.515,18.69c-8.159,2.791-16.342,5.457-24.51,7.9
		c-4.232,1.264-8.477,2.485-12.743,3.631c-2.571,0.691-5.283,0.665-7.851-0.036c-5.684-1.55-15.436-4.275-19.371-5.484
		c-10.491-3.208-20.979-6.725-31.404-10.487c-20.859-7.517-41.479-16.014-61.748-25.32c-20.294-9.261-40.192-19.453-59.718-30.316
		c-19.519-10.881-38.631-22.515-57.263-34.88c-37.269-24.727-72.593-52.404-105.544-82.683
		c-16.469-15.146-32.39-30.901-47.632-47.302c-15.202-16.437-29.769-33.468-43.706-51.015
		c-55.894-70.371-99.73-150.213-132.473-233.776c-16.43-42.03-29.67-85.375-40.471-129.376
		c-8.607-35.147-15.551-70.757-20.962-106.656c0,0,171.697,0.417,171.708,0.417c7.073,0.32,14.318-2.717,18.924-8.782l1.567-2.064
		l15.17-19.976c0,0,88.461,252.23,88.464,252.239c3.787,10.885,13.981,19.29,27.057,19.555c13.745,0.279,25.679-9.474,28.684-22.889
		l0.019-0.086l106.899-477.175c0,0,83.525,321.054,83.526,321.057c2.157,8.448,8.205,15.952,16.91,19.468
		c14.53,5.869,31.066-1.152,36.935-15.682l0.052-0.128l48.254-119.461c0,0,25.748,44.626,25.749,44.628l0.59,1.104
		c3.748,6.917,11.158,11.526,19.56,11.298l360.963-9.806c6.721-0.196,12.233-5.613,12.418-12.418
		c0.191-7.05-5.368-12.92-12.418-13.111l-346.046-9.401l-39.665-90.92c-2.639-6.027-7.413-11.201-13.841-14.207
		c-14.047-6.569-30.759-0.507-37.328,13.54c0,0-1.367,2.924-1.368,2.926l-36.592,91.873l-88.613-366.408
		c-3.097-12.7-13.799-23.039-28.107-24.575c-16.361-1.756-31.331,9.445-34.979,25.491l-0.015,0.065l-108.123,508.409
		c0,0-72.103-205.399-72.105-205.412c-1.98-5.651-5.722-10.74-11.054-14.365c-13.239-9-31.266-5.563-40.272,7.685l-35.153,58.002
		c0,0-185.703,0.451-185.704,0.451c-13.418,0-24.295,10.877-24.295,24.295l-0.002,0.424c0.006,0.812,0.063,1.632,0.175,2.47
		c5.238,46.895,12.954,93.611,23.443,139.807c10.512,46.181,23.636,91.905,40.2,136.504c0,0,6.207,16.651,6.232,16.717
		c31.108,83.451,76.147,163.182,130.313,233.812c14.565,18.993,29.832,37.462,45.802,55.319
		c16.009,17.822,32.764,34.978,50.13,51.496c34.743,33.025,72.101,63.325,111.615,90.514c19.755,13.598,40.045,26.424,60.805,38.461
		c20.769,12.02,41.967,23.329,63.664,33.68c21.675,10.397,43.782,19.952,66.382,28.532c11.301,4.294,22.722,8.343,34.328,12.108
		c5.801,1.889,11.655,3.692,17.601,5.417c6.247,1.813,12.526,3.506,18.858,4.993c4.286,0.988,8.996,1.11,13.579,0.112
		c0,0,0.516-0.112,0.526-0.115c9.719-2.218,19.32-4.927,28.857-7.82c9.166-2.784,18.186-5.765,27.143-8.874
		c17.87-6.288,35.441-13.152,52.745-20.571c34.605-14.833,68.128-31.906,100.551-50.844
		c63.597-37.145,125.192-84.238,178.797-136.168c26.945-26.172,52.098-54.171,75.512-83.521
		c23.41-29.357,45.016-60.132,64.671-92.072c19.674-31.931,37.311-65.065,53.057-99.011c15.757-33.946,29.508-68.761,41.375-104.137
		c11.875-35.377,21.877-71.31,30.219-107.564c18.238-81.172,29.041-162.735,31.92-245.926
		C1792.422,945.667,1792.881,917.454,1792.822,889.242z"/>
</g>
</svg>
